<svg width="12" height="12" viewBox="0 0 12 12" fill="none" xmlns="http://www.w3.org/2000/svg">
<path fill-rule="evenodd" clip-rule="evenodd" d="M0 6C0 2.682 2.682 0 6 0C9.318 0 12 2.682 12 6C12 9.318 9.318 12 6 12C2.682 12 0 9.318 0 6ZM8.8242 8.8242C9.0588 8.5896 9.0588 8.2104 8.8242 7.9758L6.8484 6L8.8242 4.0242C9.0588 3.7896 9.0588 3.4104 8.8242 3.1758C8.5896 2.9412 8.2104 2.9412 7.9758 3.1758L6 5.1516L4.0242 3.1758C3.7896 2.9412 3.4104 2.9412 3.1758 3.1758C2.9412 3.4104 2.9412 3.7896 3.1758 4.0242L5.1516 6L3.1758 7.9758C2.9412 8.2104 2.9412 8.5896 3.1758 8.8242C3.2928 8.9412 3.4464 9 3.6 9C3.7536 9 3.9072 8.9412 4.0242 8.8242L6 6.8484L7.9758 8.8242C8.0928 8.9412 8.2464 9 8.4 9C8.5536 9 8.7072 8.9412 8.8242 8.8242Z" fill="#E32424"/>
</svg>
