<svg width="45" height="51" viewBox="0 0 45 51" fill="none" xmlns="http://www.w3.org/2000/svg">
<path fill-rule="evenodd" clip-rule="evenodd" d="M2.8125 35.4464C4.35938 35.4464 5.625 34.1738 5.625 32.6184V19.8928C5.625 18.3374 4.35938 17.0648 2.8125 17.0648C1.26562 17.0648 0 18.3374 0 19.8928V32.6184C0 34.1738 1.26562 35.4464 2.8125 35.4464ZM42.1875 35.4464C43.7344 35.4464 45 34.1738 45 32.6184V19.8928C45 18.3374 43.7344 17.0648 42.1875 17.0648C40.6406 17.0648 39.375 18.3374 39.375 19.8928V32.6184C39.375 34.1738 40.6406 35.4464 42.1875 35.4464ZM19.6875 48.1721C19.6875 49.7274 18.4219 51 16.875 51C15.3281 51 14.0625 49.7274 14.0625 48.1721V35.4464C14.0625 33.891 15.3281 32.6184 16.875 32.6184C18.4219 32.6184 19.6875 33.891 19.6875 35.4464V48.1721ZM28.125 51C29.6719 51 30.9375 49.7274 30.9375 48.1721V35.4464C30.9375 33.891 29.6719 32.6184 28.125 32.6184C26.5781 32.6184 25.3125 33.891 25.3125 35.4464V48.1721C25.3125 49.7274 26.5781 51 28.125 51Z" fill="#7CB342"/>
<path fill-rule="evenodd" clip-rule="evenodd" d="M8.4375 14.2369C8.85938 8.01545 14.0625 2.92517 22.5 2.92517C30.9375 2.92517 36.1406 8.01545 36.5625 14.2369H8.4375ZM8.4375 38.2743V17.0648H36.5625V38.2743C36.5625 39.8297 35.2969 41.1023 33.75 41.1023H11.25C9.70312 41.1023 8.4375 39.8297 8.4375 38.2743ZM16.875 10.8434C16.0312 10.8434 15.4688 10.2778 15.4688 9.42942C15.4688 8.58104 16.0312 8.01545 16.875 8.01545C17.7188 8.01545 18.2812 8.58104 18.2812 9.42942C18.2812 10.1364 17.7188 10.8434 16.875 10.8434ZM26.7188 9.42942C26.7188 10.2778 27.2812 10.8434 28.125 10.8434C28.9688 10.8434 29.5312 10.1364 29.5312 9.42942C29.5312 8.58104 28.9688 8.01545 28.125 8.01545C27.2812 8.01545 26.7188 8.58104 26.7188 9.42942Z" fill="#7CB342"/>
<path fill-rule="evenodd" clip-rule="evenodd" d="M14.7656 5.18749C14.9062 5.61168 15.4688 5.89447 15.8906 5.89447C16.1719 5.89447 16.4531 5.75308 16.7344 5.61168C17.4375 5.18749 17.5781 4.33911 17.1562 3.63213L15.3281 0.662797C14.9062 -0.0441865 14.0625 -0.185583 13.3594 0.238607C12.6562 0.662797 12.5156 1.51118 12.9375 2.21816L14.7656 5.18749ZM27.7031 6.17727C27.9844 6.31866 28.2656 6.46006 28.5469 6.46006C29.1094 6.46006 29.5312 6.17727 29.6719 5.75308L32.0625 2.21816C32.4844 1.51118 32.3438 0.662797 31.6406 0.238607C30.9375 -0.185583 30.0938 -0.0441865 29.6719 0.662797L27.2812 4.19771C26.8594 4.9047 27 5.75308 27.7031 6.17727Z" fill="#7CB342"/>
</svg>
