<svg width="15" height="15" viewBox="0 0 15 15" fill="none" xmlns="http://www.w3.org/2000/svg">
<path d="M14.0982 0.000247722C13.8655 0.00574144 13.6444 0.103159 13.4832 0.271205L7.4998 6.25464L1.51638 0.271205C1.35034 0.100522 1.12227 0.00433015 0.884148 0.00454867C0.525877 0.0049924 0.203564 0.222375 0.0689111 0.55438C-0.0657416 0.886386 0.0140933 1.26687 0.27084 1.51675L6.25425 7.50018L0.27084 13.4836C0.0407341 13.7045 -0.0519581 14.0326 0.0285115 14.3413C0.108981 14.65 0.350038 14.891 0.658715 14.9715C0.967392 15.052 1.29545 14.9593 1.51638 14.7292L7.4998 8.74573L13.4832 14.7292C13.7041 14.9593 14.0322 15.052 14.3409 14.9715C14.6496 14.891 14.8906 14.65 14.9711 14.3413C15.0516 14.0326 14.9589 13.7045 14.7288 13.4836L8.74534 7.50018L14.7288 1.51675C14.9911 1.26519 15.072 0.878337 14.9325 0.542726C14.7929 0.207115 14.4616 -0.0083419 14.0982 0.000247722Z" fill="#A3A3A3"/>
</svg>
