<svg width="213" height="73" viewBox="0 0 213 73" fill="none" xmlns="http://www.w3.org/2000/svg">
<g clip-path="url(#clip0_0_3412)">
<path d="M120.533 24.4828C121.182 24.4828 121.714 24.4336 122.127 24.3352C122.56 24.2171 122.904 24.0695 123.16 23.8924C123.416 23.6955 123.593 23.4692 123.692 23.2133C123.79 22.9575 123.839 22.6721 123.839 22.3572C123.839 21.688 123.524 21.1369 122.894 20.7039C122.265 20.2513 121.182 19.7691 119.647 19.2573C118.978 19.0212 118.309 18.7555 117.639 18.4602C116.97 18.1453 116.37 17.7615 115.839 17.3089C115.307 16.8365 114.874 16.2756 114.54 15.6261C114.205 14.9569 114.038 14.15 114.038 13.2053C114.038 12.2605 114.215 11.4142 114.569 10.6663C114.923 9.89875 115.425 9.24925 116.075 8.71785C116.724 8.18645 117.512 7.78298 118.437 7.50743C119.362 7.21221 120.405 7.0646 121.566 7.0646C122.944 7.0646 124.134 7.21221 125.138 7.50743C126.142 7.80266 126.969 8.1274 127.618 8.48167L126.29 12.1129C125.719 11.8177 125.079 11.5618 124.371 11.3453C123.682 11.1092 122.845 10.9911 121.861 10.9911C120.759 10.9911 119.962 11.1485 119.47 11.4634C118.998 11.7587 118.761 12.2212 118.761 12.851C118.761 13.2249 118.85 13.5398 119.027 13.7957C119.204 14.0516 119.45 14.2877 119.765 14.5042C120.1 14.7011 120.474 14.888 120.887 15.0652C121.32 15.2226 121.792 15.3899 122.304 15.567C123.367 15.9607 124.292 16.3543 125.079 16.7479C125.866 17.1219 126.516 17.5647 127.028 18.0764C127.559 18.5882 127.953 19.1885 128.209 19.8773C128.464 20.5662 128.592 21.4026 128.592 22.3867C128.592 24.2958 127.923 25.7818 126.585 26.8446C125.246 27.8877 123.229 28.4093 120.533 28.4093C119.627 28.4093 118.811 28.3502 118.082 28.2322C117.354 28.1337 116.705 28.0058 116.134 27.8484C115.583 27.6909 115.101 27.5236 114.687 27.3465C114.294 27.1693 113.959 27.0021 113.683 26.8446L114.982 23.1838C115.593 23.5184 116.341 23.8235 117.226 24.099C118.132 24.3549 119.234 24.4828 120.533 24.4828ZM135.546 7.53696C135.901 8.18645 136.304 8.99339 136.757 9.95779C137.229 10.9025 137.711 11.9358 138.203 13.0576C138.715 14.1598 139.217 15.2915 139.709 16.4527C140.201 17.6139 140.664 18.7063 141.097 19.7297C141.53 18.7063 141.992 17.6139 142.484 16.4527C142.976 15.2915 143.468 14.1598 143.96 13.0576C144.472 11.9358 144.954 10.9025 145.407 9.95779C145.879 8.99339 146.293 8.18645 146.647 7.53696H150.839C151.036 8.89499 151.213 10.4203 151.37 12.1129C151.548 13.7859 151.695 15.5375 151.813 17.3679C151.951 19.1786 152.069 20.9992 152.167 22.8296C152.286 24.6599 152.384 26.3821 152.463 27.996H147.975C147.916 26.0081 147.838 23.8432 147.739 21.501C147.641 19.1589 147.493 16.7971 147.296 14.4157C146.942 15.2423 146.548 16.1575 146.115 17.1613C145.682 18.165 145.249 19.1688 144.816 20.1725C144.403 21.1763 144 22.1407 143.606 23.0657C143.212 23.9711 142.878 24.7485 142.602 25.398H139.384C139.109 24.7485 138.774 23.9711 138.381 23.0657C137.987 22.1407 137.574 21.1763 137.141 20.1725C136.727 19.1688 136.304 18.165 135.871 17.1613C135.438 16.1575 135.045 15.2423 134.69 14.4157C134.493 16.7971 134.346 19.1589 134.247 21.501C134.149 23.8432 134.07 26.0081 134.011 27.996H129.524C129.603 26.3821 129.691 24.6599 129.79 22.8296C129.908 20.9992 130.026 19.1786 130.144 17.3679C130.282 15.5375 130.429 13.7859 130.587 12.1129C130.764 10.4203 130.951 8.89499 131.148 7.53696H135.546ZM160.02 7.53696C160.374 8.18645 160.778 8.99339 161.23 9.95779C161.703 10.9025 162.185 11.9358 162.677 13.0576C163.189 14.1598 163.691 15.2915 164.183 16.4527C164.675 17.6139 165.137 18.7063 165.57 19.7297C166.003 18.7063 166.466 17.6139 166.958 16.4527C167.45 15.2915 167.942 14.1598 168.434 13.0576C168.946 11.9358 169.428 10.9025 169.88 9.95779C170.353 8.99339 170.766 8.18645 171.12 7.53696H175.313C175.509 8.89499 175.686 10.4203 175.844 12.1129C176.021 13.7859 176.169 15.5375 176.287 17.3679C176.425 19.1786 176.543 20.9992 176.641 22.8296C176.759 24.6599 176.858 26.3821 176.936 27.996H172.449C172.39 26.0081 172.311 23.8432 172.213 21.501C172.114 19.1589 171.967 16.7971 171.77 14.4157C171.416 15.2423 171.022 16.1575 170.589 17.1613C170.156 18.165 169.723 19.1688 169.29 20.1725C168.877 21.1763 168.473 22.1407 168.08 23.0657C167.686 23.9711 167.351 24.7485 167.076 25.398H163.858C163.582 24.7485 163.248 23.9711 162.854 23.0657C162.46 22.1407 162.047 21.1763 161.614 20.1725C161.201 19.1688 160.778 18.165 160.345 17.1613C159.912 16.1575 159.518 15.2423 159.164 14.4157C158.967 16.7971 158.819 19.1589 158.721 21.501C158.623 23.8432 158.544 26.0081 158.485 27.996H153.997C154.076 26.3821 154.165 24.6599 154.263 22.8296C154.381 20.9992 154.499 19.1786 154.617 17.3679C154.755 15.5375 154.903 13.7859 155.06 12.1129C155.237 10.4203 155.424 8.89499 155.621 7.53696H160.02Z" fill="url(#paint0_linear_0_3412)"/>
<path opacity="0.419638" d="M94.6626 50.5588C94.8602 50.9003 95.0804 51.3181 95.323 51.8122C95.5656 52.3064 95.8126 52.8275 96.0642 53.3756C96.3158 53.9147 96.5629 54.4673 96.8055 55.0334C97.0571 55.5905 97.2862 56.1071 97.4928 56.5833C97.6995 56.1071 97.9241 55.5905 98.1667 55.0334C98.4093 54.4673 98.6564 53.9147 98.908 53.3756C99.1596 52.8275 99.4067 52.3064 99.6493 51.8122C99.8919 51.3181 100.112 50.9003 100.31 50.5588H101.846C101.927 51.2417 102.003 51.9695 102.075 52.7422C102.147 53.5059 102.21 54.2921 102.264 55.1008C102.327 55.9004 102.381 56.7091 102.426 57.5267C102.48 58.3354 102.524 59.1261 102.56 59.8988H100.889C100.853 58.8116 100.808 57.693 100.754 56.5429C100.71 55.3928 100.638 54.2786 100.539 53.2004C100.44 53.4071 100.323 53.6542 100.188 53.9417C100.054 54.2292 99.9098 54.5437 99.7571 54.8851C99.6043 55.2176 99.4471 55.5635 99.2854 55.9229C99.1326 56.2823 98.9799 56.6327 98.8271 56.9742C98.6834 57.3066 98.5486 57.6211 98.4228 57.9176C98.297 58.2051 98.1892 58.4522 98.0993 58.6589H96.8324C96.7426 58.4522 96.6348 58.2006 96.509 57.9041C96.3832 57.6076 96.2439 57.2931 96.0912 56.9607C95.9474 56.6193 95.7947 56.2688 95.6329 55.9094C95.4802 55.55 95.3274 55.2041 95.1747 54.8717C95.022 54.5392 94.8782 54.2292 94.7434 53.9417C94.6086 53.6452 94.4918 53.3981 94.393 53.2004C94.2942 54.2786 94.2178 55.3928 94.1639 56.5429C94.119 57.693 94.0785 58.8116 94.0426 59.8988H92.3714C92.4073 59.1261 92.4477 58.3264 92.4927 57.4998C92.5466 56.6732 92.6005 55.8555 92.6544 55.0469C92.7173 54.2292 92.7847 53.4385 92.8566 52.6748C92.9284 51.9111 93.0048 51.2057 93.0857 50.5588H94.6626ZM110.226 59.8988V50.5588H116.224V52.0009H111.925V54.3056H115.752V55.7207H111.925V58.4567H116.547V59.8988H110.226ZM125.509 58.4971C125.608 58.5061 125.738 58.5151 125.9 58.5241C126.062 58.5241 126.282 58.5241 126.56 58.5241C127.701 58.5241 128.551 58.2366 129.108 57.6615C129.674 57.0775 129.957 56.2643 129.957 55.2221C129.957 54.1618 129.683 53.3487 129.135 52.7826C128.586 52.2166 127.737 51.9335 126.587 51.9335C126.084 51.9335 125.725 51.947 125.509 51.974V58.4971ZM131.736 55.2221C131.736 56.0307 131.61 56.7361 131.358 57.3381C131.107 57.9311 130.747 58.4297 130.28 58.8341C129.822 59.2294 129.265 59.5259 128.609 59.7236C127.962 59.9123 127.243 60.0066 126.452 60.0066C126.075 60.0066 125.648 59.9887 125.172 59.9527C124.696 59.9258 124.242 59.8629 123.811 59.764V50.6936C124.242 50.5948 124.7 50.5319 125.186 50.5049C125.671 50.478 126.102 50.4645 126.479 50.4645C127.261 50.4645 127.975 50.5588 128.622 50.7475C129.269 50.9272 129.822 51.2147 130.28 51.6101C130.747 51.9964 131.107 52.4906 131.358 53.0926C131.61 53.6856 131.736 54.3954 131.736 55.2221ZM139.278 50.5588H140.976V59.8988H139.278V50.5588ZM155.1 59.8988C154.974 59.5304 154.844 59.1665 154.709 58.8071C154.575 58.4477 154.444 58.0793 154.318 57.702H150.383C150.257 58.0793 150.127 58.4522 149.992 58.8206C149.866 59.18 149.741 59.5394 149.615 59.8988H147.849C148.2 58.9015 148.532 57.9805 148.847 57.1359C149.161 56.2913 149.467 55.4916 149.763 54.7369C150.069 53.9821 150.37 53.2633 150.666 52.5805C150.963 51.8976 151.268 51.2237 151.582 50.5588H153.186C153.501 51.2237 153.806 51.8976 154.103 52.5805C154.399 53.2633 154.696 53.9821 154.992 54.7369C155.298 55.4916 155.608 56.2913 155.922 57.1359C156.246 57.9805 156.583 58.9015 156.933 59.8988H155.1ZM152.351 52.3648C152.144 52.841 151.906 53.4206 151.636 54.1034C151.376 54.7863 151.102 55.5276 150.814 56.3272H153.887C153.6 55.5276 153.321 54.7818 153.052 54.09C152.782 53.3981 152.548 52.8231 152.351 52.3648Z" fill="#3346D0"/>
<path fill-rule="evenodd" clip-rule="evenodd" d="M41.7304 73C60.5498 73 75.8059 57.5818 75.8059 38.5624C75.8059 19.543 60.5498 4.12476 41.7304 4.12476C22.9109 4.12476 7.65479 19.543 7.65479 38.5624C7.65479 38.7705 7.65661 38.9782 7.66025 39.1855C12.2017 39.2173 18.0981 39.553 18.0981 39.553C21.2506 39.553 22.2653 37.7736 23.488 35.6296C24.167 34.4389 24.9101 33.1357 26.1191 31.9625C29.5329 28.6491 36.0645 21.1412 37.3505 15.2212C38.2016 11.2562 41.8559 13.0551 43.1326 15.1753C45.0527 18.3417 43.1945 22.2421 41.515 25.7672C41.3737 26.0638 41.2337 26.3577 41.0973 26.6482C39.5801 29.8698 39.8114 33.5228 43.8728 33.0547C45.556 32.8622 46.8945 32.6902 48.0956 32.5359C50.3869 32.2416 52.1785 32.0115 54.9098 31.8248C59.1193 31.5403 60.4422 33.2475 60.4422 34.8353C60.4422 36.4167 60.1141 37.095 59.8631 37.6139C59.7077 37.9352 59.5818 38.1953 59.5818 38.5709C59.5818 38.9202 59.9904 39.0652 60.5169 39.252C61.4704 39.5902 62.8106 40.0657 62.8106 42.1413C62.8106 44.2491 61.7294 44.9346 60.9818 45.4086C60.5868 45.659 60.2849 45.8504 60.2849 46.1614C60.2849 46.4953 60.6242 46.761 61.0508 47.095C61.7731 47.6606 62.7458 48.4223 62.7458 50.0438C62.7458 51.6141 61.5182 52.3542 60.5577 52.9332C59.9406 53.3052 59.4338 53.6107 59.4338 54.0272C59.4338 54.5058 59.6506 54.8249 59.8894 55.1762C60.1817 55.6065 60.507 56.0851 60.507 56.9643C60.507 58.5613 57.1487 62.0674 45.3068 62.0674C33.3191 62.0674 29.2959 60.3764 26.0299 59.0036C23.7986 58.0657 21.9208 57.2763 18.0981 57.2763C18.0981 57.2763 15.6849 57.1725 12.9175 56.9563C18.9567 66.5983 29.6038 73 41.7304 73Z" fill="url(#paint1_linear_0_3412)"/>
</g>
<defs>
<linearGradient id="paint0_linear_0_3412" x1="35.9766" y1="16.996" x2="55.2081" y2="79.0343" gradientUnits="userSpaceOnUse">
<stop stop-color="#3087FB"/>
<stop offset="1" stop-color="#333DBD"/>
</linearGradient>
<linearGradient id="paint1_linear_0_3412" x1="-26.4208" y1="38.5624" x2="42.4506" y2="106.71" gradientUnits="userSpaceOnUse">
<stop stop-color="#3087FB"/>
<stop offset="1" stop-color="#333DBD"/>
</linearGradient>
<clipPath id="clip0_0_3412">
<rect width="213" height="73" fill="white"/>
</clipPath>
</defs>
</svg>
