<svg width="28" height="33" viewBox="0 0 28 33" fill="none" xmlns="http://www.w3.org/2000/svg">
<path fill-rule="evenodd" clip-rule="evenodd" d="M14.036 0.0005358C13.751 -0.0083152 13.4736 0.0927767 13.2617 0.282691C13.2617 0.282691 7.7296 5.13375 1.10526 5.13375C0.494868 5.13381 6.10303e-05 5.62625 0 6.23372V15.224C0 20.1211 2.27641 28.1792 13.5711 32.9138C13.8454 33.0287 14.1546 33.0287 14.4289 32.9138C25.7236 28.1792 28 20.1211 28 15.224V6.23372C27.9999 5.62625 27.5051 5.13381 26.8947 5.13375C20.2704 5.13375 14.7383 0.282691 14.7383 0.282691C14.5449 0.109268 14.2962 0.00934696 14.036 0.0005358ZM14 9.53365C14.6108 9.53365 15.1053 10.0257 15.1053 10.6336V17.9668C15.1053 18.5747 14.6108 19.0668 14 19.0668C13.3892 19.0668 12.8947 18.5747 12.8947 17.9668V10.6336C12.8947 10.0257 13.3892 9.53365 14 9.53365ZM15.4737 22.7333C15.4737 21.923 14.8142 21.2667 14 21.2667C13.1858 21.2667 12.5263 21.923 12.5263 22.7333C12.5263 23.5437 13.1858 24.2 14 24.2C14.8142 24.2 15.4737 23.5437 15.4737 22.7333Z" fill="#DD3737"/>
</svg>
