<svg width="42" height="30" viewBox="0 0 42 30" fill="none" xmlns="http://www.w3.org/2000/svg">
<path d="M42 26C42 28.209 40.209 30 38 30H4C1.791 30 0 28.209 0 26V4C0 1.791 1.791 0 4 0H38C40.209 0 42 1.791 42 4V26Z" fill="#1565C0"/>
<path fill-rule="evenodd" clip-rule="evenodd" d="M25.295 12.149C23.867 12.149 23.369 12.6 23.369 13.206C23.369 13.6819 24.0083 13.9979 24.7748 14.3768C25.922 14.9439 27.354 15.6519 27.354 17.247C27.354 19.459 24.498 20.999 22.439 20.999C20.385 20.999 19.322 20.393 19.322 20.393L19.817 18.177C19.817 18.177 20.914 18.786 22.576 18.786C24.233 18.786 24.464 18.113 24.464 17.822C24.464 17.1131 23.7705 16.7792 22.9626 16.3901C21.8352 15.8471 20.485 15.1968 20.485 13.271C20.485 11.443 22.042 9.99902 25.061 9.99902C26.394 9.99902 27.752 10.514 27.752 10.514L27.286 12.823C27.286 12.823 26.223 12.149 25.295 12.149ZM12.186 10L9.55998 17.832C9.55998 17.832 8.89298 14.519 8.82698 14.103C7.33198 10.692 5.12598 10.882 5.12598 10.882L7.72598 21V20.998H10.887L15.258 10H12.186ZM14.689 21H17.56L19.296 10H16.389L14.689 21ZM31.987 10H35.008L37.232 21H34.619L34.313 19.429H30.717L30.129 21H27.277L31.987 10ZM31.513 17.328L33.076 13.171L33.894 17.328H31.513Z" fill="white"/>
<path d="M9.21191 15.945L8.24591 11.197C8.24591 11.197 7.80891 10.168 6.67291 10.168C5.53691 10.168 2.23291 10.168 2.23291 10.168C2.23291 10.168 7.89391 11.84 9.21191 15.945Z" fill="#FFC107"/>
</svg>
